
        <svg xmlns="http://www.w3.org/2000/svg" xmlns:xlink="http://www.w3.org/1999/xlink" version="1.1" width="3161.9517573345524" height="1253.299301059883" viewBox="0 0 3161.9517573345524 1253.299301059883">
			
			<g transform="scale(8.09758786672762) translate(10, 10)">
				<defs id="SvgjsDefs4676"><linearGradient id="SvgjsLinearGradient4683"><stop id="SvgjsStop4684" stop-color="#fe8dc6" offset="0"/><stop id="SvgjsStop4685" stop-color="#fed1c7" offset="1"/></linearGradient><linearGradient id="SvgjsLinearGradient4686"><stop id="SvgjsStop4687" stop-color="#ee2a7b" offset="0"/><stop id="SvgjsStop4688" stop-color="#ff7db8" offset="1"/></linearGradient></defs><g id="SvgjsG4677" featureKey="symbolFeature-0" transform="matrix(2.281051831007193,0,0,2.281051831007193,269.2119351842625,15.351246655044246)" fill="#fff"><g xmlns="http://www.w3.org/2000/svg"><path d="M28.025,20.264H24.9c-0.552,0-1-0.448-1-1s0.448-1,1-1h3.125c0.553,0,1,0.448,1,1S28.578,20.264,28.025,20.264z"/></g><g xmlns="http://www.w3.org/2000/svg"><path d="M31.668,36.477v-0.01c-0.018,0.001-0.029,0.002-0.047,0.004C31.637,36.472,31.652,36.476,31.668,36.477z"/><path d="M39.106,18.264h-3.125c-0.552,0-1,0.448-1,1s0.448,1,1,1h3.125c0.553,0,1-0.448,1-1   S39.659,18.264,39.106,18.264z"/><path d="M44.104,14.573l-0.041-0.478l-0.399-0.267c-3.61-2.416-7.63-3.579-11.975-3.451c-0.21-0.006-0.422-0.009-0.636-0.009   c-3.747,0-7.259,0.989-10.461,2.92c-0.292,0.176-0.585,0.348-0.872,0.54l-0.398,0.267l-0.042,0.478   c-0.006,0.073-0.046,0.547-0.095,1.266c-0.155,2.313-0.397,7.239,0.105,10.157c0.096,0.559,0.273,1.381,0.563,2.334   c0.048,0.158,0.115,0.333,0.169,0.497c0.49,1.472,1.246,3.18,2.435,4.773c1.061,1.423,2.455,2.732,4.293,3.658   c1.359,0.685,2.949,1.164,4.832,1.311l0.134,0.007l0.085-0.007c9.523-0.74,11.816-9.812,12.292-12.573   C44.753,22.171,44.132,14.881,44.104,14.573z M31.714,31.45c0.051,0.071-0.021,4.23,4.342,3.906c-2.01,0.976-2.123,0.88-4.388,1.11   v0.01c-0.016-0.001-0.031-0.005-0.047-0.006c-0.006,0.001-0.011,0.001-0.017,0.002v-0.004c-1.642-0.098-3.188-0.618-4.581-1.353   c-1.056-0.622-1.935-1.394-2.647-2.25c-1.361-1.639-2.164-3.547-2.635-5.147c-0.23-0.783-0.382-1.494-0.479-2.063   c-0.522-3.034-0.154-8.738-0.027-10.428c1.303-0.827,2.668-1.465,4.082-1.934c1.01-0.336,2.049-0.573,3.11-0.728   c0.861-0.125,1.735-0.198,2.628-0.198c0.193,0,0.387,0.003,0.577,0.008l0.062,0v2.283v11.218h-0.678h-2h-2.604   c0.203,1.377,0.593,2.407,1.069,3.188c0.945,1.547,2.239,2.093,3.144,2.276c0.628,0.127,1.068,0.083,1.068,0.083v-5.536h5.229   c-0.875,6-5.229,5.547-5.229,5.547v0.015H31.714z M39.106,20.264h-3.125c-0.552,0-1-0.448-1-1s0.448-1,1-1h3.125   c0.553,0,1,0.448,1,1S39.659,20.264,39.106,20.264z"/><path d="M31.604,36.473c0.006-0.001,0.011-0.001,0.017-0.002c-0.006,0-0.011-0.001-0.017-0.002V36.473z"/></g><path xmlns="http://www.w3.org/2000/svg" d="M26.268,37.619c-0.148-0.234-0.458-0.301-0.69-0.151c-0.07,0.045-0.135,0.081-0.204,0.123  c-1.409-0.866-2.667-1.985-3.717-3.393c-0.057-0.076-1.089-1.56-1.089-1.56s-0.807-0.266-1.713,0.641s-1.549,2.295-1.549,2.295  c-0.823-3.747,0.489-5.7,1.683-6.67c-0.03-0.095-0.063-0.194-0.091-0.284c-0.321-1.058-0.499-1.918-0.591-2.454  c-0.682-3.956-0.049-11.366-0.021-11.68l0.022-0.258c0.055-0.014,0.108-0.032,0.164-0.045c0.269-0.065,0.433-0.335,0.368-0.604  c-0.065-0.269-0.337-0.436-0.604-0.368c-0.822,0.199-1.633,0.451-2.41,0.749c-0.196,0.075-0.392,0.153-0.676,0.269  c-0.195,0.068-0.394,0.14-0.588,0.215c-3.578,1.37-6.558,3.631-8.857,6.72c-0.094,0.126-0.123,0.291-0.078,0.442  c0.516,1.722,2.33,7.562,4.028,10.421c1.482,2.492,5.28,7.605,11.484,7.604c1.097,0,2.271-0.16,3.519-0.522  c0.026-0.008,0.104-0.038,0.128-0.05c0.432-0.208,0.867-0.453,1.33-0.75C26.349,38.161,26.417,37.852,26.268,37.619z M15.487,22.733  l-2.685,1.599c-0.475,0.282-1.088,0.127-1.371-0.348c-0.283-0.475-0.127-1.088,0.348-1.371l2.685-1.599  c0.475-0.283,1.088-0.127,1.371,0.348C16.118,21.836,15.962,22.45,15.487,22.733z"/></g><g id="SvgjsG4678" featureKey="nameFeature-0" transform="matrix(2.896468363559457,0,0,2.896468363559457,-4.68159423477955,-46.575222114203015)" fill="#fff"><path d="M13.76 42.08 c-1.04 0 -0.96 -1 -0.48 -3.72 c0.52 -2.88 0.6 -3.24 0.4 -3.32 c-0.28 -0.16 -1.68 1.24 -2.72 2.52 c-1.28 1.56 -1.88 1.96 -2.36 1.88 c-0.44 -0.08 -0.56 -0.56 -0.04 -3.36 c0.44 -2.2 0.52 -3.48 0.2 -3.68 c-0.44 -0.24 -0.96 0.16 -3.16 3.68 c-2.4 3.96 -2.92 5.76 -3.56 5.76 c-0.36 0 -0.48 -0.32 -0.4 -0.88 c0.36 -2.16 0.52 -4.52 0.56 -5.4 c0.04 -0.8 1.12 -0.8 1.04 0.08 c-0.12 0.92 -0.52 2.8 -0.72 3.92 c-0.08 0.6 0.8 -1.04 2.44 -3.8 c2.04 -3.36 3 -4.36 3.88 -4.2 c1.16 0.24 0.88 1.92 0.4 4.56 l-0.36 1.96 c-0.12 0.64 0.12 0.8 0.64 0.16 c0.24 -0.24 0.56 -0.56 0.84 -0.92 c1.48 -1.8 2.92 -3.24 3.56 -3.24 c0.44 0 0.68 0.44 0.68 0.88 s-0.16 1.6 -0.56 3.44 c-0.52 2.4 -0.48 3 -0.12 3 c1.88 0 7.04 -3.04 12.36 -6.28 c0.2 -0.12 0.96 0.12 0.32 0.52 c-3.68 2.4 -10.2 6.44 -12.84 6.44 z M38.68 34.96 c0.2 0 0.36 0.4 0.16 0.48 c-0.48 0.12 -2.4 1.2 -7 2.76 c-3.64 1.24 -4.56 1.44 -5.2 1.44 c-1.04 0 -1.36 -0.72 -1.36 -1.36 c0 -0.6 0.16 -1.64 0.4 -2.32 c0.16 -0.56 0.36 -0.88 1.04 -1 c0.2 -0.04 0.44 0.2 0.2 0.64 c-0.6 1.24 -0.72 2 -0.8 2.64 c-0.04 0.48 0.16 0.72 0.36 0.72 c0.52 0 1.64 -0.12 5.04 -1.32 c3.92 -1.4 6.92 -2.68 7.16 -2.68 z M27.52 32.12 c-0.2 -0.08 -0.36 -0.76 -0.28 -1.04 c0.08 -0.24 0.4 -0.68 0.64 -0.64 c0.36 0.08 0.6 0.56 0.52 0.92 c-0.12 0.36 -0.64 0.8 -0.88 0.76 z M34.8 39.2 c-0.12 -0.92 0.52 -2.16 1.96 -3.36 c1.28 -1.08 2.28 -1.28 2.96 -1.28 c0.92 0 0.84 1 0.44 0.84 c-0.52 -0.2 -1.52 -0.04 -2.8 0.92 s-1.76 1.92 -1.72 2.6 c0.04 0.84 1.28 1.2 2.6 1.04 c2.96 -0.32 9.48 -3.32 12.32 -4.84 c0.2 -0.12 1.04 -0.08 0.4 0.36 c-3 1.92 -9.76 4.72 -12.48 5.12 c-1.88 0.28 -3.48 -0.04 -3.68 -1.4 z M55.96 32.52 c-0.2 0 -0.32 -0.16 -0.4 -0.16 s-2.32 1.16 -3.64 1.92 c-0.84 0.52 -1.76 1.04 -2.24 1.48 c-0.08 0.28 -0.12 0.56 -0.16 0.84 c0.76 0.28 3.16 0.16 4.96 0 c2.52 -0.24 5.8 -0.76 8.4 -1.4 c0.6 -0.12 0.44 0.6 0.12 0.68 c-2.2 0.72 -5.84 1.24 -8.48 1.52 c-2.08 0.2 -3.96 0.24 -5.16 0.08 l-0.4 2.28 c-0.6 3.64 -0.24 4.72 -0.68 4.72 c-0.48 0 -0.4 -1.96 -0.08 -4.96 c0.08 -0.72 0.16 -1.44 0.28 -2.2 c-0.36 -0.12 -0.56 -0.28 -0.64 -0.44 c-0.12 -0.36 0.12 -0.88 0.96 -1.6 c0.32 -2.08 0.84 -4.72 1.72 -8.44 c1.96 -8.64 2.92 -10.76 3.6 -10.76 c0.32 0 0.44 0.92 0.32 1.28 c-0.12 0.48 -0.64 1.32 -1.08 2.28 c-0.12 0.2 -1.16 4.16 -1.92 7.72 c-0.56 2.48 -1.04 4.88 -1.48 7.04 c0.2 -0.16 0.44 -0.32 0.72 -0.48 c2.08 -1.36 4.92 -2.68 5.16 -2.68 c0.28 0 0.6 0.48 0.6 0.68 s-0.16 0.6 -0.48 0.6 z M65.28 40.48 c-2.08 0.16 -3 -1.6 -2.16 -3.44 c0.8 -1.84 2.4 -2.56 3.24 -2.4 c0.76 0.12 1 0.76 0.68 1.68 c-0.48 1.24 -1.96 2.12 -3.4 2.6 c0.16 0.56 0.68 0.84 1.4 0.8 c1.84 -0.16 4.4 -1.44 11.64 -4.6 c0.52 -0.24 0.64 0.28 0.32 0.4 c-6.08 2.68 -9.52 4.8 -11.72 4.96 z M63.84 37.32 c-0.2 0.44 -0.28 0.8 -0.28 1.12 c1.16 -0.4 2.56 -1.52 2.88 -2.4 c0.12 -0.36 0.08 -0.72 -0.2 -0.8 c-0.44 -0.12 -1.72 0.4 -2.4 2.08 z M83.12 35.84 c-0.68 0 -1.64 1 -3 2.48 c-1.4 1.52 -2.8 2.92 -3.72 2.92 c-0.56 0 -1.04 -0.52 -0.8 -1.44 c0.28 -1 0.64 -2.28 0.92 -3.12 c0.32 -1.04 0.12 -1.48 0.52 -1.56 c0.4 -0.04 0.56 0.28 0.56 0.4 c0 0.32 -0.12 0.64 -0.48 1.56 c-0.28 0.8 -0.68 2 -0.76 2.32 c-0.16 0.68 -0.12 0.92 0.16 0.92 c0.48 0 1.88 -1 3.12 -2.4 c2 -2.16 2.68 -3.12 3.64 -3.12 c1 0 1.2 1.72 1.24 2.96 c3.12 -1.84 6.08 -2.88 6.84 -2.88 c0.6 0 0.76 0.68 0.2 0.68 c-0.8 0 -3.84 1.04 -7.04 3.08 c-0.08 3.64 -1.44 9.28 -3.28 12.56 c-1.84 3.24 -4.28 5.44 -6.4 5.44 c-1.08 0 -2.52 -0.72 -2.52 -2.76 c0 -2.96 2.36 -7.44 7 -12.16 c1.32 -1.36 2.88 -2.52 4.44 -3.48 c-0.04 -1.4 -0.12 -2.4 -0.64 -2.4 z M80.52 50.64 c1.88 -3.28 3.16 -8.8 3.24 -11.52 c-1.36 0.88 -2.68 1.92 -3.88 3.16 c-4.84 4.88 -6.76 9.44 -6.76 11.72 c0 1.16 0.48 1.88 1.4 1.88 c1.48 0 3.96 -1.64 6 -5.24 z"/></g><g id="SvgjsG4679" featureKey="sloganFeature-0" transform="matrix(0.5513758500604485,0,0,0.5513758500604485,4.7538907155799635,123.48222253934736)" fill="#fff"><path d="M6.18 7.32 c1.82 0 3.76 0.7 3.76 2.76 c0 0.48 -0.32 0.7 -0.66 0.7 s-0.7 -0.24 -0.7 -0.7 c0 -0.16 -0.1 -1.46 -2.4 -1.46 c-1.82 0 -2.62 0.72 -2.62 2.44 l0 4.82 c0 1.74 0.98 2.28 2.62 2.28 c1.66 0 2.58 -0.68 2.58 -2.3 c0 -0.46 0.34 -0.68 0.66 -0.68 c0.34 0 0.66 0.22 0.66 0.68 c0 2.7 -1.5 3.6 -3.9 3.6 c-2.6 0 -3.92 -0.96 -3.92 -3.58 l0 -4.82 c0 -2.84 1.42 -3.74 3.92 -3.74 z M17.4015 18.76 l0 -10.76 c0 -0.42 0.32 -0.62 0.66 -0.62 s0.68 0.2 0.68 0.62 l0 4.58 l4.54 0 l0 -4.58 c0 -0.42 0.32 -0.64 0.64 -0.64 s0.66 0.22 0.66 0.64 l0 10.76 c0 0.42 -0.34 0.64 -0.66 0.64 s-0.64 -0.22 -0.64 -0.64 l0 -4.82 l-4.54 0 l0 4.82 c0 0.42 -0.34 0.64 -0.68 0.64 s-0.66 -0.22 -0.66 -0.64 z M38.163 18.86 l-0.78 -2.54 l-3.72 0 l-0.74 2.5 c-0.26 0.86 -1.58 0.6 -1.3 -0.28 c1.04 -3.5 2.06 -7.06 3.08 -10.6 c0.12 -0.38 0.44 -0.58 0.76 -0.58 c0.3 0 0.62 0.2 0.74 0.58 l3.18 10.6 c0.22 0.76 -0.96 1.18 -1.22 0.32 z M35.503 10.06 l-1.44 4.92 l2.94 0 c-0.5 -1.68 -0.96 -3.12 -1.5 -4.92 z M47.7845 15.9 l0 2.86 c0 0.44 -0.34 0.64 -0.66 0.64 c-0.34 0 -0.66 -0.2 -0.66 -0.64 l0 -10.74 c0 -0.4 0.22 -0.66 0.66 -0.66 l2.7 0 c0.76 0 3.16 0.22 3.16 2.92 l0 2.5 c0 1.52 -0.56 2.48 -1.84 2.9 l1.36 2.74 c0.28 0.54 -0.14 0.98 -0.58 0.98 c-0.24 0 -0.54 -0.16 -0.7 -0.5 l-1.46 -3 l-1.98 0 z M51.6645 12.78 l0 -2.5 c0 -0.48 -0.18 -1.58 -1.84 -1.58 l-2.04 0 l0 5.86 l1.86 0 c0.98 0 2.02 -0.22 2.02 -1.78 z M66.326 18.86 l-0.78 -2.54 l-3.72 0 l-0.74 2.5 c-0.26 0.86 -1.58 0.6 -1.3 -0.28 c1.04 -3.5 2.06 -7.06 3.08 -10.6 c0.12 -0.38 0.44 -0.58 0.76 -0.58 c0.3 0 0.62 0.2 0.74 0.58 l3.18 10.6 c0.22 0.76 -0.96 1.18 -1.22 0.32 z M63.666 10.06 l-1.44 4.92 l2.94 0 c-0.5 -1.68 -0.96 -3.12 -1.5 -4.92 z M78.2475 7.32 c1.82 0 3.76 0.7 3.76 2.76 c0 0.48 -0.32 0.7 -0.66 0.7 s-0.7 -0.24 -0.7 -0.7 c0 -0.16 -0.1 -1.46 -2.4 -1.46 c-1.82 0 -2.62 0.72 -2.62 2.44 l0 4.82 c0 1.74 0.98 2.28 2.62 2.28 c1.66 0 2.58 -0.68 2.58 -2.3 c0 -0.46 0.34 -0.68 0.66 -0.68 c0.34 0 0.66 0.22 0.66 0.68 c0 2.7 -1.5 3.6 -3.9 3.6 c-2.6 0 -3.92 -0.96 -3.92 -3.58 l0 -4.82 c0 -2.84 1.42 -3.74 3.92 -3.74 z M89.149 7.36 l6.04 0 c0.42 0 0.62 0.34 0.62 0.68 s-0.2 0.66 -0.62 0.66 l-2.28 0 l0 10.06 c0 0.42 -0.34 0.64 -0.68 0.64 s-0.66 -0.22 -0.66 -0.64 l0 -10.06 l-2.42 0 c-0.42 0 -0.62 -0.32 -0.62 -0.66 s0.2 -0.68 0.62 -0.68 z M102.6305 18.7 l0 -10.64 c0 -0.46 0.36 -0.7 0.7 -0.7 l4.6 0 c0.44 0 0.66 0.32 0.66 0.66 s-0.22 0.68 -0.66 0.68 l-3.96 0 l0 3.88 l3.14 0 c0.46 0 0.68 0.32 0.68 0.66 s-0.24 0.7 -0.68 0.7 l-3.14 0 l0 4.14 l3.96 0 c0.42 0 0.64 0.34 0.64 0.66 c0 0.34 -0.22 0.66 -0.64 0.66 l-4.6 0 c-0.34 0 -0.7 -0.12 -0.7 -0.7 z M117.152 15.9 l0 2.86 c0 0.44 -0.34 0.64 -0.66 0.64 c-0.34 0 -0.66 -0.2 -0.66 -0.64 l0 -10.74 c0 -0.4 0.22 -0.66 0.66 -0.66 l2.7 0 c0.76 0 3.16 0.22 3.16 2.92 l0 2.5 c0 1.52 -0.56 2.48 -1.84 2.9 l1.36 2.74 c0.28 0.54 -0.14 0.98 -0.58 0.98 c-0.24 0 -0.54 -0.16 -0.7 -0.5 l-1.46 -3 l-1.98 0 z M121.032 12.78 l0 -2.5 c0 -0.48 -0.18 -1.58 -1.84 -1.58 l-2.04 0 l0 5.86 l1.86 0 c0.98 0 2.02 -0.22 2.02 -1.78 z M129.5535 17.68 c-0.44 -0.82 0.68 -1.42 1.2 -0.6 c0.26 0.42 1.04 1.14 2.28 1.14 c0.52 0 1.82 -0.38 2 -1.86 c0.12 -0.9 -0.74 -1.78 -2.22 -2.52 c-2.08 -0.98 -3.66 -1.84 -3.66 -3.56 c0 -2.04 1.72 -3 3.56 -3 c1.66 0 2.58 1.02 2.9 1.54 c0.46 0.74 -0.54 1.46 -1.1 0.74 c-0.28 -0.36 -0.82 -0.96 -1.8 -0.96 c-1.1 0 -2.24 0.52 -2.24 1.68 c0 0.92 1.02 1.44 2.54 2.16 c1.78 0.88 3.64 1.74 3.36 4.08 c-0.22 1.84 -1.62 3.02 -3.34 3.02 c-1.3 0 -2.9 -0.7 -3.48 -1.86 z M154.7965 7.08 l0 12.7 c0 0.46 -0.34 0.7 -0.66 0.7 c-0.34 0 -0.66 -0.24 -0.66 -0.7 l0 -12.7 c0 -0.48 0.32 -0.7 0.64 -0.7 c0.34 0 0.68 0.24 0.68 0.7 z M177.8195 18.86 l-0.78 -2.54 l-3.72 0 l-0.74 2.5 c-0.26 0.86 -1.58 0.6 -1.3 -0.28 c1.04 -3.5 2.06 -7.06 3.08 -10.6 c0.12 -0.38 0.44 -0.58 0.76 -0.58 c0.3 0 0.62 0.2 0.74 0.58 l3.18 10.6 c0.22 0.76 -0.96 1.18 -1.22 0.32 z M175.1595 10.06 l-1.44 4.92 l2.94 0 c-0.5 -1.68 -0.96 -3.12 -1.5 -4.92 z M192.881 8 l0 10.76 c0 0.42 -0.32 0.64 -0.64 0.64 c-0.24 0 -0.56 -0.18 -0.7 -0.44 c-1.5 -2.94 -2.62 -5.2 -4.12 -8.16 l0 7.96 c0 0.42 -0.32 0.64 -0.66 0.64 c-0.32 0 -0.66 -0.22 -0.66 -0.64 l0 -10.76 c0 -0.7 1 -0.74 1.22 -0.32 l4.22 8.34 l0 -8.02 c0 -0.42 0.32 -0.64 0.66 -0.64 s0.68 0.22 0.68 0.64 z M200.6025 18.78 l0 -10.78 c0 -0.42 0.32 -0.64 0.64 -0.64 s0.66 0.22 0.66 0.64 l0 10.78 c0 0.86 -1.3 0.86 -1.3 0 z M218.124 18.76 l0 -8.92 l-3.18 9 c-0.18 0.5 -0.84 0.62 -1.04 0 l-3.08 -9 l0 8.92 c0 0.42 -0.32 0.64 -0.66 0.64 s-0.68 -0.22 -0.68 -0.64 l0 -10.74 c0 -0.38 0.28 -0.66 0.68 -0.66 l0.64 0 c0.44 0 0.68 0.32 0.78 0.62 c0.96 2.86 1.84 5.4 2.82 8.28 l2.9 -8.34 c0.1 -0.28 0.28 -0.56 0.7 -0.56 l0.8 0 c0.58 0 0.66 0.32 0.66 0.64 l0 10.76 c0 0.42 -0.34 0.64 -0.68 0.64 s-0.66 -0.22 -0.66 -0.64 z M232.9855 18.86 l-0.78 -2.54 l-3.72 0 l-0.74 2.5 c-0.26 0.86 -1.58 0.6 -1.3 -0.28 c1.04 -3.5 2.06 -7.06 3.08 -10.6 c0.12 -0.38 0.44 -0.58 0.76 -0.58 c0.3 0 0.62 0.2 0.74 0.58 l3.18 10.6 c0.22 0.76 -0.96 1.18 -1.22 0.32 z M230.3255 10.06 l-1.44 4.92 l2.94 0 c-0.5 -1.68 -0.96 -3.12 -1.5 -4.92 z M240.907 7.36 l6.04 0 c0.42 0 0.62 0.34 0.62 0.68 s-0.2 0.66 -0.62 0.66 l-2.28 0 l0 10.06 c0 0.42 -0.34 0.64 -0.68 0.64 s-0.66 -0.22 -0.66 -0.64 l0 -10.06 l-2.42 0 c-0.42 0 -0.62 -0.32 -0.62 -0.66 s0.2 -0.68 0.62 -0.68 z M254.4285 18.78 l0 -10.78 c0 -0.42 0.32 -0.64 0.64 -0.64 s0.66 0.22 0.66 0.64 l0 10.78 c0 0.86 -1.3 0.86 -1.3 0 z M263.15 15.86 l0 -4.96 c0 -2.4 1.24 -3.68 3.64 -3.68 l0.52 0 c2.38 0 3.64 1.28 3.64 3.68 l0 4.96 c0 2.2 -1.46 3.64 -3.64 3.64 l-0.52 0 c-2.22 0 -3.64 -1.46 -3.64 -3.64 z M266.79 18.16 l0.52 0 c1.44 0 2.3 -0.9 2.3 -2.3 l0 -4.96 c0 -1.56 -0.76 -2.36 -2.3 -2.36 l-0.52 0 c-1.52 0 -2.36 0.82 -2.36 2.36 l0 4.96 c0 1.46 0.92 2.3 2.36 2.3 z M285.1515 8 l0 10.76 c0 0.42 -0.32 0.64 -0.64 0.64 c-0.24 0 -0.56 -0.18 -0.7 -0.44 c-1.5 -2.94 -2.62 -5.2 -4.12 -8.16 l0 7.96 c0 0.42 -0.32 0.64 -0.66 0.64 c-0.32 0 -0.66 -0.22 -0.66 -0.64 l0 -10.76 c0 -0.7 1 -0.74 1.22 -0.32 l4.22 8.34 l0 -8.02 c0 -0.42 0.32 -0.64 0.66 -0.64 s0.68 0.22 0.68 0.64 z M304.2145 7.08 l0 12.7 c0 0.46 -0.34 0.7 -0.66 0.7 c-0.34 0 -0.66 -0.24 -0.66 -0.7 l0 -12.7 c0 -0.48 0.32 -0.7 0.64 -0.7 c0.34 0 0.68 0.24 0.68 0.7 z M325.0175 7.32 c1.82 0 3.76 0.7 3.76 2.76 c0 0.48 -0.32 0.7 -0.66 0.7 s-0.7 -0.24 -0.7 -0.7 c0 -0.16 -0.1 -1.46 -2.4 -1.46 c-1.82 0 -2.62 0.72 -2.62 2.44 l0 4.82 c0 1.74 0.98 2.28 2.62 2.28 c1.66 0 2.58 -0.68 2.58 -2.3 c0 -0.46 0.34 -0.68 0.66 -0.68 c0.34 0 0.66 0.22 0.66 0.68 c0 2.7 -1.5 3.6 -3.9 3.6 c-2.6 0 -3.92 -0.96 -3.92 -3.58 l0 -4.82 c0 -2.84 1.42 -3.74 3.92 -3.74 z M336.079 15.86 l0 -4.96 c0 -2.4 1.24 -3.68 3.64 -3.68 l0.52 0 c2.38 0 3.64 1.28 3.64 3.68 l0 4.96 c0 2.2 -1.46 3.64 -3.64 3.64 l-0.52 0 c-2.22 0 -3.64 -1.46 -3.64 -3.64 z M339.719 18.16 l0.52 0 c1.44 0 2.3 -0.9 2.3 -2.3 l0 -4.96 c0 -1.56 -0.76 -2.36 -2.3 -2.36 l-0.52 0 c-1.52 0 -2.36 0.82 -2.36 2.36 l0 4.96 c0 1.46 0.92 2.3 2.36 2.3 z M359.9005 18.76 l0 -8.92 l-3.18 9 c-0.18 0.5 -0.84 0.62 -1.04 0 l-3.08 -9 l0 8.92 c0 0.42 -0.32 0.64 -0.66 0.64 s-0.68 -0.22 -0.68 -0.64 l0 -10.74 c0 -0.38 0.28 -0.66 0.68 -0.66 l0.64 0 c0.44 0 0.68 0.32 0.78 0.62 c0.96 2.86 1.84 5.4 2.82 8.28 l2.9 -8.34 c0.1 -0.28 0.28 -0.56 0.7 -0.56 l0.8 0 c0.58 0 0.66 0.32 0.66 0.64 l0 10.76 c0 0.42 -0.34 0.64 -0.68 0.64 s-0.66 -0.22 -0.66 -0.64 z M377.502 18.76 l0 -8.92 l-3.18 9 c-0.18 0.5 -0.84 0.62 -1.04 0 l-3.08 -9 l0 8.92 c0 0.42 -0.32 0.64 -0.66 0.64 s-0.68 -0.22 -0.68 -0.64 l0 -10.74 c0 -0.38 0.28 -0.66 0.68 -0.66 l0.64 0 c0.44 0 0.68 0.32 0.78 0.62 c0.96 2.86 1.84 5.4 2.82 8.28 l2.9 -8.34 c0.1 -0.28 0.28 -0.56 0.7 -0.56 l0.8 0 c0.58 0 0.66 0.32 0.66 0.64 l0 10.76 c0 0.42 -0.34 0.64 -0.68 0.64 s-0.66 -0.22 -0.66 -0.64 z M386.4635 18.7 l0 -10.64 c0 -0.46 0.36 -0.7 0.7 -0.7 l4.6 0 c0.44 0 0.66 0.32 0.66 0.66 s-0.22 0.68 -0.66 0.68 l-3.96 0 l0 3.88 l3.14 0 c0.46 0 0.68 0.32 0.68 0.66 s-0.24 0.7 -0.68 0.7 l-3.14 0 l0 4.14 l3.96 0 c0.42 0 0.64 0.34 0.64 0.66 c0 0.34 -0.22 0.66 -0.64 0.66 l-4.6 0 c-0.34 0 -0.7 -0.12 -0.7 -0.7 z M400.985 15.9 l0 2.86 c0 0.44 -0.34 0.64 -0.66 0.64 c-0.34 0 -0.66 -0.2 -0.66 -0.64 l0 -10.74 c0 -0.4 0.22 -0.66 0.66 -0.66 l2.7 0 c0.76 0 3.16 0.22 3.16 2.92 l0 2.5 c0 1.52 -0.56 2.48 -1.84 2.9 l1.36 2.74 c0.28 0.54 -0.14 0.98 -0.58 0.98 c-0.24 0 -0.54 -0.16 -0.7 -0.5 l-1.46 -3 l-1.98 0 z M404.865 12.78 l0 -2.5 c0 -0.48 -0.18 -1.58 -1.84 -1.58 l-2.04 0 l0 5.86 l1.86 0 c0.98 0 2.02 -0.22 2.02 -1.78 z M417.3065 7.32 c1.82 0 3.76 0.7 3.76 2.76 c0 0.48 -0.32 0.7 -0.66 0.7 s-0.7 -0.24 -0.7 -0.7 c0 -0.16 -0.1 -1.46 -2.4 -1.46 c-1.82 0 -2.62 0.72 -2.62 2.44 l0 4.82 c0 1.74 0.98 2.28 2.62 2.28 c1.66 0 2.58 -0.68 2.58 -2.3 c0 -0.46 0.34 -0.68 0.66 -0.68 c0.34 0 0.66 0.22 0.66 0.68 c0 2.7 -1.5 3.6 -3.9 3.6 c-2.6 0 -3.92 -0.96 -3.92 -3.58 l0 -4.82 c0 -2.84 1.42 -3.74 3.92 -3.74 z M428.568 18.78 l0 -10.78 c0 -0.42 0.32 -0.64 0.64 -0.64 s0.66 0.22 0.66 0.64 l0 10.78 c0 0.86 -1.3 0.86 -1.3 0 z M443.3495 18.86 l-0.78 -2.54 l-3.72 0 l-0.74 2.5 c-0.26 0.86 -1.58 0.6 -1.3 -0.28 c1.04 -3.5 2.06 -7.06 3.08 -10.6 c0.12 -0.38 0.44 -0.58 0.76 -0.58 c0.3 0 0.62 0.2 0.74 0.58 l3.18 10.6 c0.22 0.76 -0.96 1.18 -1.22 0.32 z M440.6895 10.06 l-1.44 4.92 l2.94 0 c-0.5 -1.68 -0.96 -3.12 -1.5 -4.92 z M451.631 18.76 l0 -10.76 c0 -0.42 0.32 -0.64 0.64 -0.64 s0.66 0.22 0.66 0.64 l0 10.06 l3.98 0 c0.44 0 0.68 0.34 0.68 0.68 s-0.24 0.66 -0.68 0.66 l-4.62 0 c-0.4 0 -0.66 -0.32 -0.66 -0.64 z"/></g>
			</g>
		</svg>
	